# xmcd
#
# Track frame offsets: 
#        150
#        10875
#        27375
#        51526
#        64201
#        79352
#        100352
#        112952
#        135489
#        152215
#        174566
#        189431
#        211519
#        229569
#        276624
#        289616
#        326871
#        342416
#
# Disc length: 4799 seconds
#
# Revision: 0
# Processed by: cddbd v1.5.2PL0 Copyright (c) Steve Scherf et al.
# Submitted via: ExactAudioCopy v0.99pb4
#
DISCID=0c12bd12
DTITLE=Stevie Ray Vaughan - Texas Flood and Live At Montreux '82
DYEAR=1983
DGENRE=Blues
TTITLE0=Love Struck Baby
TTITLE1=Pride And Joy
TTITLE2=Texas Flood
TTITLE3=Tell Me
TTITLE4=Testify
TTITLE5=Rude Mood
TTITLE6=Mary Had A Little Lamb
TTITLE7=Dirty Pool
TTITLE8=I'm Crying
TTITLE9=Lenny
TTITLE10=Hide Away
TTITLE11=Rude Mood
TTITLE12=Prde And Joy
TTITLE13=Texas Flood
TTITLE14=Love Struck Baby
TTITLE15=Dirty Pool
TTITLE16=Give Me Back My Wig
TTITLE17=Colling Shuffle
EXTD=
EXTT0=
EXTT1=
EXTT2=
EXTT3=
EXTT4=
EXTT5=
EXTT6=
EXTT7=
EXTT8=
EXTT9=
EXTT10=
EXTT11=
EXTT12=
EXTT13=
EXTT14=
EXTT15=
EXTT16=
EXTT17=
PLAYORDER=
